<svg width="24" height="24" viewBox="0 0 24 24" fill="none" xmlns="http://www.w3.org/2000/svg">
<path d="M6 4.69451V1.31868C6 0.58022 6.62857 0 7.42857 0C8.22857 0 8.85714 0.58022 8.85714 1.31868V4.69451C8.85714 5.43297 8.22857 6.01319 7.42857 6.01319C6.62857 6.01319 6 5.43297 6 4.69451ZM16.5714 6.01319C17.3714 6.01319 18 5.43297 18 4.69451V1.31868C18 0.58022 17.3714 0 16.5714 0C15.7714 0 15.1429 0.58022 15.1429 1.31868V4.69451C15.1429 5.43297 15.7714 6.01319 16.5714 6.01319ZM6.91429 10.5495H17.0571C17.6857 10.5495 18.2 10.0747 18.2 9.49451C18.2 8.91429 17.6857 8.43956 17.0571 8.43956H6.91429C6.28571 8.43956 5.77143 8.91429 5.77143 9.49451C5.77143 10.0747 6.28571 10.5495 6.91429 10.5495ZM22.8571 1.84615H20.4857C19.8571 1.84615 19.3429 2.32088 19.3429 2.9011C19.3429 3.48132 19.8571 3.95604 20.4857 3.95604H21.7143V21.8901H2.28571V3.95604H3.51429C4.14286 3.95604 4.65714 3.48132 4.65714 2.9011C4.65714 2.32088 4.14286 1.84615 3.51429 1.84615H1.14286C0.514286 1.84615 0 2.42637 0 3.00659V22.9451C0 23.5253 0.514286 24 1.14286 24H22.8571C23.4857 24 24 23.5253 24 22.9451V3.00659C24 2.42637 23.4857 1.84615 22.8571 1.84615ZM11.0571 3.95604H12.9429C13.5714 3.95604 14.0857 3.48132 14.0857 2.9011C14.0857 2.32088 13.5714 1.84615 12.9429 1.84615H11.0571C10.4286 1.84615 9.91429 2.32088 9.91429 2.9011C9.91429 3.48132 10.4286 3.95604 11.0571 3.95604ZM6.91429 15.2967H17.0571C17.6857 15.2967 18.2 14.822 18.2 14.2418C18.2 13.6615 17.6857 13.1868 17.0571 13.1868H6.91429C6.28571 13.1868 5.77143 13.6615 5.77143 14.2418C5.77143 14.822 6.28571 15.2967 6.91429 15.2967Z" fill="white"/>
</svg>
