<svg width="43" height="43" viewBox="0 0 43 43" fill="none" xmlns="http://www.w3.org/2000/svg">
<path d="M21.5 36.98C16.125 36.98 11.3735 34.228 8.6 30.1C8.6645 25.8 17.2 23.435 21.5 23.435C25.8 23.435 34.3355 25.8 34.4 30.1C31.6265 34.228 26.875 36.98 21.5 36.98ZM21.5 6.45C23.2106 6.45 24.8512 7.12955 26.0608 8.33916C27.2704 9.54877 27.95 11.1894 27.95 12.9C27.95 14.6106 27.2704 16.2512 26.0608 17.4608C24.8512 18.6704 23.2106 19.35 21.5 19.35C19.7894 19.35 18.1488 18.6704 16.9392 17.4608C15.7296 16.2512 15.05 14.6106 15.05 12.9C15.05 11.1894 15.7296 9.54877 16.9392 8.33916C18.1488 7.12955 19.7894 6.45 21.5 6.45ZM21.5 0C18.6766 0 15.8808 0.556114 13.2723 1.63659C10.6638 2.71707 8.29366 4.30074 6.2972 6.2972C2.26517 10.3292 0 15.7978 0 21.5C0 27.2022 2.26517 32.6708 6.2972 36.7028C8.29366 38.6993 10.6638 40.2829 13.2723 41.3634C15.8808 42.4439 18.6766 43 21.5 43C27.2022 43 32.6708 40.7348 36.7028 36.7028C40.7348 32.6708 43 27.2022 43 21.5C43 9.6105 33.325 0 21.5 0Z" fill="#FF5C00"/>
</svg>
