<svg width="22" height="22" viewBox="0 0 22 22" fill="none" xmlns="http://www.w3.org/2000/svg">
<path d="M15.0176 7.58398H14.01C13.7908 7.58398 13.5824 7.68926 13.4535 7.86973L10.0762 12.5533L8.54651 10.4307C8.41761 10.2523 8.21136 10.1449 7.99007 10.1449H6.98245C6.8428 10.1449 6.76116 10.3039 6.8428 10.4178L9.51975 14.1303C9.58299 14.2185 9.66636 14.2905 9.76294 14.3401C9.85953 14.3897 9.96654 14.4156 10.0751 14.4156C10.1837 14.4156 10.2907 14.3897 10.3873 14.3401C10.4839 14.2905 10.5673 14.2185 10.6305 14.1303L15.1551 7.85684C15.2389 7.74297 15.1573 7.58398 15.0176 7.58398Z" fill="white"/>
<path d="M10.5 3C6.35826 3 3 6.35826 3 10.5C3 14.6417 6.35826 18 10.5 18C14.6417 18 18 14.6417 18 10.5C18 6.35826 14.6417 3 10.5 3ZM10.5 16.7277C7.06138 16.7277 4.27232 13.9386 4.27232 10.5C4.27232 7.06138 7.06138 4.27232 10.5 4.27232C13.9386 4.27232 16.7277 7.06138 16.7277 10.5C16.7277 13.9386 13.9386 16.7277 10.5 16.7277Z" fill="white"/>
</svg>
