<svg width="28" height="28" viewBox="0 0 28 28" fill="none" xmlns="http://www.w3.org/2000/svg">
<path d="M9.5 4.69451V1.31868C9.5 0.58022 10.1286 0 10.9286 0C11.7286 0 12.3571 0.58022 12.3571 1.31868V4.69451C12.3571 5.43297 11.7286 6.01319 10.9286 6.01319C10.1286 6.01319 9.5 5.43297 9.5 4.69451ZM20.0714 6.01319C20.8714 6.01319 21.5 5.43297 21.5 4.69451V1.31868C21.5 0.58022 20.8714 0 20.0714 0C19.2714 0 18.6429 0.58022 18.6429 1.31868V4.69451C18.6429 5.43297 19.2714 6.01319 20.0714 6.01319ZM10.4143 10.5495H20.5571C21.1857 10.5495 21.7 10.0747 21.7 9.49451C21.7 8.91429 21.1857 8.43956 20.5571 8.43956H10.4143C9.78571 8.43956 9.27143 8.91429 9.27143 9.49451C9.27143 10.0747 9.78571 10.5495 10.4143 10.5495ZM26.3571 1.84615H23.9857C23.3571 1.84615 22.8429 2.32088 22.8429 2.9011C22.8429 3.48132 23.3571 3.95604 23.9857 3.95604H25.2143V21.8901H5.78571V3.95604H7.01429C7.64286 3.95604 8.15714 3.48132 8.15714 2.9011C8.15714 2.32088 7.64286 1.84615 7.01429 1.84615H4.64286C4.01429 1.84615 3.5 2.42637 3.5 3.00659V22.9451C3.5 23.5253 4.01429 24 4.64286 24H26.3571C26.9857 24 27.5 23.5253 27.5 22.9451V3.00659C27.5 2.42637 26.9857 1.84615 26.3571 1.84615ZM14.5571 3.95604H16.4429C17.0714 3.95604 17.5857 3.48132 17.5857 2.9011C17.5857 2.32088 17.0714 1.84615 16.4429 1.84615H14.5571C13.9286 1.84615 13.4143 2.32088 13.4143 2.9011C13.4143 3.48132 13.9286 3.95604 14.5571 3.95604ZM10.4143 15.2967H20.5571C21.1857 15.2967 21.7 14.822 21.7 14.2418C21.7 13.6615 21.1857 13.1868 20.5571 13.1868H10.4143C9.78571 13.1868 9.27143 13.6615 9.27143 14.2418C9.27143 14.822 9.78571 15.2967 10.4143 15.2967Z" fill="white"/>
</svg>
