<svg width="37" height="29" viewBox="0 0 37 29" fill="none" xmlns="http://www.w3.org/2000/svg">
<g clip-path="url(#clip0_1213_345)">
<path d="M32.5918 11.0449C32.5918 4.95492 26.27 0 18.5 0C10.73 0 4.4082 4.95492 4.4082 11.0449C4.40725 12.5329 4.79096 14.0056 5.53618 15.3741C6.2814 16.7426 7.37267 17.9786 8.74414 19.0075V28.1504C8.74409 28.2952 8.79128 28.4377 8.88125 28.5642C8.97122 28.6908 9.10096 28.7972 9.25817 28.8733C9.41537 28.9495 9.59481 28.9929 9.77943 28.9994C9.96406 29.0059 10.1477 28.9753 10.313 28.9105L18.5 25.7018L26.687 28.9105C26.8523 28.9753 27.0359 29.0059 27.2206 28.9994C27.4052 28.9929 27.5846 28.9495 27.7418 28.8733C27.899 28.7972 28.0288 28.6908 28.1188 28.5642C28.2087 28.4377 28.2559 28.2952 28.2559 28.1504V19.0075C29.6273 17.9786 30.7186 16.7426 31.4638 15.3741C32.209 14.0056 32.5928 12.5329 32.5918 11.0449ZM6.57617 11.0449C6.57617 5.89062 11.9238 1.69922 18.5 1.69922C25.0762 1.69922 30.4238 5.89062 30.4238 11.0449C30.4238 16.1992 25.0762 20.3906 18.5 20.3906C11.9238 20.3906 6.57617 16.1992 6.57617 11.0449ZM26.0879 26.7757L18.9849 23.9918C18.8344 23.9328 18.6683 23.9021 18.5 23.9021C18.3317 23.9021 18.1657 23.9328 18.0151 23.9918L10.9121 26.7757V20.3481C13.1769 21.4854 15.8103 22.0899 18.5 22.0899C21.1897 22.0899 23.8231 21.4854 26.0879 20.3481V26.7757Z" fill="#FF5C00" fill-opacity="0.55"/>
<path d="M12.1096 16.7367C12.0389 16.9073 12.0389 17.0911 12.1097 17.2617C12.1804 17.4323 12.3182 17.581 12.5034 17.6864C12.6885 17.7919 12.9115 17.8487 13.1404 17.8487C13.3692 17.8487 13.5922 17.792 13.7774 17.6866L18.5 14.9978L23.2226 17.6866C23.4078 17.792 23.6308 17.8487 23.8596 17.8487C24.0885 17.8487 24.3115 17.7919 24.4966 17.6864C24.6818 17.581 24.8196 17.4323 24.8903 17.2617C24.9611 17.0911 24.9611 16.9073 24.8905 16.7367L23.0838 12.3856L27.8064 9.69685C27.9915 9.59153 28.1294 9.443 28.2003 9.27251C28.2712 9.10203 28.2715 8.91833 28.2011 8.74772C28.1306 8.57712 27.9932 8.42834 27.8083 8.32271C27.6234 8.21707 27.4007 8.15999 27.1719 8.15963H21.335L19.5283 3.80849C19.4578 3.63768 19.3199 3.48879 19.1347 3.38319C18.9494 3.27759 18.7262 3.2207 18.4971 3.2207C18.268 3.2207 18.0448 3.27759 17.8596 3.38319C17.6743 3.48879 17.5365 3.63768 17.4659 3.80849L15.6592 8.15963H9.82813C9.5991 8.15951 9.37592 8.21625 9.19058 8.32171C9.00525 8.42717 8.8673 8.57593 8.79651 8.74665C8.72573 8.91736 8.72575 9.10127 8.79657 9.27197C8.8674 9.44268 9.00539 9.59142 9.19075 9.69685L13.9133 12.3856L12.1096 16.7367ZM13.1646 9.85885H16.4527C16.6816 9.85891 16.9047 9.80217 17.09 9.69676C17.2752 9.59135 17.4131 9.44267 17.4839 9.27205L18.5 6.82064L19.5161 9.27205C19.5869 9.44267 19.7248 9.59135 19.91 9.69676C20.0953 9.80217 20.3184 9.85891 20.5473 9.85885H23.8354L21.1738 11.374C20.9886 11.4794 20.8508 11.6281 20.78 11.7988C20.7093 11.9694 20.7093 12.1532 20.78 12.3238L21.796 14.7753L19.1359 13.2601C18.9507 13.1546 18.7276 13.0977 18.4986 13.0977C18.2695 13.0977 18.0464 13.1546 17.8612 13.2601L15.2011 14.7753L16.2171 12.3238C16.2882 12.1534 16.2886 11.9698 16.2184 11.7992C16.1481 11.6286 16.0109 11.4797 15.8262 11.374L13.1646 9.85885Z" fill="#FF5C00" fill-opacity="0.55"/>
</g>
<defs>
<clipPath id="clip0_1213_345">
<rect width="37" height="29" fill="white"/>
</clipPath>
</defs>
</svg>
