<svg width="134" height="141" viewBox="0 0 134 141" fill="none" xmlns="http://www.w3.org/2000/svg">
<path d="M110.054 140.505H5.5088C4.04778 140.505 2.6466 139.924 1.6135 138.891C0.580396 137.858 9.41133e-06 136.457 9.41133e-06 134.996V5.5088C-0.00132973 4.785 0.140253 4.06806 0.416622 3.3991C0.69299 2.73014 1.09871 2.12232 1.61052 1.61051C2.12232 1.0987 2.73014 0.692983 3.3991 0.416614C4.06806 0.140245 4.785 -0.00132973 5.5088 9.41184e-06H128.491C129.215 9.41184e-06 129.931 0.142501 130.599 0.419344C131.268 0.696187 131.875 1.10196 132.387 1.6135C132.898 2.12504 133.304 2.73232 133.581 3.40068C133.858 4.06904 134 4.78538 134 5.5088V115.329L110.054 140.505Z" fill="white"/>
</svg>
