<svg width="192" height="195" viewBox="0 0 192 195" fill="none" xmlns="http://www.w3.org/2000/svg">
<path d="M183.179 122.291C170.292 169.772 122.075 198.272 75.4839 185.947C28.8923 173.622 1.56931 125.139 14.4562 77.6578C27.3431 30.1765 75.5599 1.67669 122.151 14.0017C168.743 26.3267 196.066 74.8092 183.179 122.291Z" fill="#0099FF"/>
<path fill-rule="evenodd" clip-rule="evenodd" d="M188.621 123.73C174.973 174.017 123.784 204.483 74.025 191.32C24.2659 178.157 -4.63535 126.505 9.01297 76.2181C22.6613 25.9313 73.8502 -4.53441 123.609 8.62848C173.368 21.7914 202.27 73.4436 188.621 123.73ZM75.4834 185.947C122.075 198.272 170.292 169.772 183.179 122.291C196.065 74.8093 168.742 26.3268 122.151 14.0018C75.5593 1.67677 27.3425 30.1766 14.4556 77.6579C1.56877 125.139 28.8918 173.622 75.4834 185.947Z" fill="#4C3BB2"/>
<path d="M177.544 116.728C164.657 164.209 116.44 192.709 69.8483 180.384C23.2567 168.059 -4.06634 119.576 8.82055 72.0951C21.7074 24.6138 69.9242 -3.88596 116.516 8.43903C163.107 20.764 190.43 69.2466 177.544 116.728Z" fill="#4C3BB2"/>
<path fill-rule="evenodd" clip-rule="evenodd" d="M182.987 118.168C169.339 168.454 118.15 198.92 68.3908 185.757C18.6318 172.594 -10.2695 120.942 3.37879 70.6553C17.0271 20.3685 68.216 -10.0972 117.975 3.06571C167.734 16.2286 196.635 67.8808 182.987 118.168ZM69.8492 180.384C116.441 192.709 164.658 164.209 177.544 116.728C190.431 69.2465 163.108 20.764 116.517 8.43899C69.9252 -3.886 21.7083 24.6138 8.82147 72.0951C-4.06542 119.576 23.2576 168.059 69.8492 180.384Z" fill="#4C3BB2"/>
<path d="M161.218 112.408C150.747 150.987 111.8 174.203 74.226 164.264C36.6521 154.324 14.6806 114.993 25.1512 76.4143C35.6218 37.8358 74.5695 14.6192 112.143 24.5587C149.717 34.4983 171.689 73.8299 161.218 112.408Z" fill="#0099FF"/>
<path fill-rule="evenodd" clip-rule="evenodd" d="M166.66 113.848C155.439 155.194 113.546 180.425 72.7671 169.637C31.9881 158.85 8.4864 116.32 19.708 74.9746C30.9296 33.6291 72.8222 8.39818 113.601 19.1856C154.38 29.9729 177.882 72.5028 166.66 113.848ZM74.2254 164.264C111.799 174.204 150.747 150.987 161.218 112.409C171.688 73.83 149.717 34.4983 112.143 24.5588C74.569 14.6193 35.6213 37.8358 25.1507 76.4144C14.6801 114.993 36.6516 154.325 74.2254 164.264Z" fill="#4C3BB2"/>
<path fill-rule="evenodd" clip-rule="evenodd" d="M145.484 44.8842C137.743 38.0738 128.381 32.9269 117.776 30.1216C80.2023 20.1821 41.2546 43.3986 30.784 81.9771C24.0274 106.872 30.7799 132.08 46.5165 149.501C26.832 132.182 17.634 104.104 25.1493 76.4143C35.6199 37.8358 74.5676 14.6192 112.141 24.5587C125.469 28.0843 136.834 35.3079 145.484 44.8842Z" fill="#D2EDFF"/>
<path fill-rule="evenodd" clip-rule="evenodd" d="M15.8162 67.8121C14.3587 67.2744 13.6186 65.672 14.1633 64.233C23.8879 38.5409 45.6657 18.6573 72.7128 11.2875C74.2126 10.8788 75.7641 11.7479 76.1781 13.2287C76.5921 14.7095 75.7118 16.2412 74.2119 16.6499C48.9193 23.5416 28.5385 42.146 19.4415 66.1802C18.8968 67.6192 17.2737 68.3498 15.8162 67.8121Z" fill="#7761FF"/>
<path fill-rule="evenodd" clip-rule="evenodd" d="M163.381 136.563C164.696 137.383 165.089 139.101 164.258 140.4C157.668 150.699 148.929 159.525 138.664 166.263C137.368 167.114 135.619 166.766 134.758 165.487C133.896 164.208 134.248 162.481 135.544 161.631C145.15 155.325 153.328 147.066 159.494 137.429C160.325 136.13 162.065 135.742 163.381 136.563Z" fill="#7761FF"/>
<path fill-rule="evenodd" clip-rule="evenodd" d="M46.8527 29.9717C46.8522 29.9721 46.8533 29.9713 46.8527 29.9717L45.29 27.6574C46.8527 29.9717 46.8524 29.9719 46.8527 29.9717L46.8426 29.9784L46.7855 30.0168C46.7322 30.0529 46.6489 30.1097 46.5384 30.1865C46.3174 30.3402 45.9879 30.5739 45.5717 30.8821C44.7383 31.4992 43.562 32.4114 42.2148 33.5751C39.5049 35.9161 36.1787 39.2107 33.5474 43.1073C32.6843 44.3855 30.9351 44.7309 29.6405 43.8788C28.3459 43.0267 27.996 41.2998 28.8591 40.0216C31.8625 35.574 35.5797 31.9151 38.5044 29.3886C39.9746 28.1186 41.2634 27.1186 42.1909 26.4319C42.655 26.0882 43.0299 25.8221 43.2931 25.639C43.4248 25.5474 43.5286 25.4765 43.6018 25.427L43.6885 25.3688L43.7139 25.3519L43.7221 25.3465L43.725 25.3446C43.7255 25.3442 43.7272 25.3431 45.29 27.6574L43.725 25.3446C45.0197 24.4925 46.771 24.8364 47.6341 26.1146C48.4968 27.3921 48.146 29.1192 46.8527 29.9717Z" fill="#C5BCFF"/>
<path fill-rule="evenodd" clip-rule="evenodd" d="M58.1226 43.8789C58.122 43.8792 58.1231 43.8785 58.1226 43.8789L56.5598 41.5646C58.1226 43.8789 58.1222 43.8791 58.1226 43.8789L58.1124 43.8856L58.0553 43.924C58.002 43.9601 57.9187 44.0168 57.8083 44.0937C57.5873 44.2474 57.2578 44.4811 56.8415 44.7893C56.0082 45.4063 54.8318 46.3185 53.4847 47.4823C50.7747 49.8233 47.4486 53.1179 44.8173 57.0145C43.9542 58.2927 42.205 58.638 40.9103 57.7859C39.6157 56.9338 39.2658 55.207 40.1289 53.9288C43.1323 49.4812 46.8495 45.8223 49.7742 43.2958C51.2444 42.0258 52.5332 41.0258 53.4607 40.339C53.9249 39.9954 54.2997 39.7293 54.563 39.5462C54.6946 39.4546 54.7984 39.3837 54.8717 39.3342L54.9583 39.276L54.9838 39.2591L54.9919 39.2537L54.9949 39.2517C54.9954 39.2514 54.997 39.2503 56.5598 41.5646L54.9949 39.2517C56.2895 38.3996 58.0409 38.7436 58.904 40.0217C59.7667 41.2993 59.4158 43.0264 58.1226 43.8789Z" fill="white"/>
</svg>
