<svg width="37" height="31" viewBox="0 0 37 31" fill="none" xmlns="http://www.w3.org/2000/svg">
<path d="M30.8333 10.3333L21.5833 3.53917C20.7354 2.90373 19.6376 2.55243 18.5 2.55243C17.3623 2.55243 16.2646 2.90373 15.4167 3.53917L6.16666 10.3333C5.67698 10.7003 5.28621 11.1504 5.02039 11.6537C4.75456 12.1571 4.61977 12.7021 4.62499 13.2525V24.5417C4.62499 25.5694 5.11227 26.555 5.97962 27.2817C6.84698 28.0084 8.02337 28.4167 9.24999 28.4167H27.75C28.9766 28.4167 30.153 28.0084 31.0204 27.2817C31.8877 26.555 32.375 25.5694 32.375 24.5417V13.2396C32.378 12.6914 32.2422 12.1488 31.9764 11.6478C31.7107 11.1469 31.3211 10.6988 30.8333 10.3333ZM21.5833 25.8333H15.4167V19.375C15.4167 19.0324 15.5791 18.7039 15.8682 18.4617C16.1573 18.2194 16.5495 18.0833 16.9583 18.0833H20.0417C20.4505 18.0833 20.8427 18.2194 21.1318 18.4617C21.4209 18.7039 21.5833 19.0324 21.5833 19.375V25.8333ZM29.2917 24.5417C29.2917 24.8842 29.1292 25.2128 28.8401 25.455C28.551 25.6973 28.1589 25.8333 27.75 25.8333H24.6667V19.375C24.6667 18.3473 24.1794 17.3617 23.312 16.635C22.4447 15.9083 21.2683 15.5 20.0417 15.5H16.9583C15.7317 15.5 14.5553 15.9083 13.688 16.635C12.8206 17.3617 12.3333 18.3473 12.3333 19.375V25.8333H9.24999C8.84112 25.8333 8.44899 25.6973 8.15987 25.455C7.87075 25.2128 7.70833 24.8842 7.70833 24.5417V13.2396C7.7086 13.0562 7.75549 12.8749 7.84587 12.7079C7.93625 12.5409 8.06805 12.3919 8.23249 12.2708L17.4825 5.48959C17.7638 5.28251 18.1255 5.16831 18.5 5.16831C18.8745 5.16831 19.2362 5.28251 19.5175 5.48959L28.7675 12.2708C28.9319 12.3919 29.0637 12.5409 29.1541 12.7079C29.2445 12.8749 29.2914 13.0562 29.2917 13.2396V24.5417Z" fill="#FF5C00" fill-opacity="0.55"/>
</svg>
