<svg width="25" height="26" viewBox="0 0 25 26" fill="none" xmlns="http://www.w3.org/2000/svg">
<path fill-rule="evenodd" clip-rule="evenodd" d="M22.2416 14.0092L22.1238 13.7811C21.616 12.7972 21.4677 11.7548 21.4226 10.83C21.3999 10.3639 21.4029 9.90331 21.408 9.47989C21.4087 9.42164 21.4094 9.36435 21.4101 9.30777C21.4147 8.94236 21.419 8.61045 21.4107 8.29083C21.3759 7.03162 20.9397 5.80561 20.1508 4.75605C19.2522 3.74297 18.0782 2.94657 16.7363 2.44383L16.713 2.43508L16.69 2.4256C14.8737 1.67549 12.8943 1.2882 10.8905 1.29172H10.889C8.36757 1.2936 5.95548 2.18883 4.18199 3.77301C2.40936 5.35636 1.41963 7.4976 1.42164 9.72428C1.42283 11.0446 1.84566 12.5502 2.58029 13.9431C3.31664 15.3393 4.3142 16.5241 5.36436 17.2582L5.91859 17.6456L5.92378 23.4036C6.15493 23.6632 6.60382 23.9837 7.27696 24.2615C8.10066 24.6014 8.92855 24.7388 9.40757 24.7029L9.46528 24.6985L9.52322 24.6985C10.9138 24.6974 11.5642 24.34 11.844 24.1226C11.9455 24.0438 12.016 23.9696 12.0633 23.9113L12.0601 20.3362L13.8353 20.7518L13.8362 20.752L13.8369 20.7521L13.8378 20.7524L13.8464 20.7542C13.8574 20.7567 13.8764 20.7608 13.9028 20.7664C13.9555 20.7774 14.0376 20.7939 14.1448 20.8134C14.3597 20.8524 14.6725 20.9026 15.0494 20.9446C15.8147 21.0299 16.791 21.0747 17.7336 20.9484C18.6842 20.8209 19.4764 20.5368 20.0209 20.0626C20.528 19.621 20.9741 18.8815 20.9729 17.5277L20.9719 16.4234L22.1669 16.2516L22.1678 16.2515L22.1736 16.2505C22.1778 16.2499 22.184 16.2489 22.1918 16.2475C22.1996 16.2462 22.2091 16.2445 22.2203 16.2425C22.2652 16.2345 22.3348 16.2211 22.4212 16.2015C22.598 16.1615 22.824 16.1003 23.0443 16.0158C23.273 15.9279 23.4375 15.8367 23.5344 15.7589C23.554 15.7433 23.5677 15.7308 23.5771 15.7214C23.5736 15.6867 23.5603 15.6157 23.5106 15.5008C23.4327 15.3211 23.2999 15.1135 23.1298 14.8988C22.9635 14.6889 22.7867 14.5036 22.649 14.3693C22.5812 14.3032 22.5254 14.2519 22.4887 14.2189C22.4793 14.2105 22.4713 14.2033 22.4646 14.1975C22.4582 14.1919 22.4531 14.1873 22.4493 14.1841L22.4435 14.1791L22.4427 14.1784L22.2416 14.0092ZM13.4832 22.0032C13.4832 22.0032 14.0533 22.1366 14.905 22.2299C17.422 22.5055 22.399 22.4306 22.3945 17.5266C22.3945 17.5266 24.7419 17.1892 24.9786 15.9699C25.2152 14.7507 23.411 13.2326 23.411 13.2326C22.7968 12.0427 22.8147 10.641 22.8316 9.32508C22.8363 8.96128 22.8408 8.604 22.8319 8.25963C22.79 6.73253 22.2556 5.2485 21.2927 3.98517C20.2384 2.78267 18.8563 1.84092 17.2783 1.24968C15.2757 0.422661 13.0946 -0.0038489 10.8878 2.61703e-05C7.99787 0.00217684 5.22717 1.02802 3.18535 2.85187C1.14347 4.6757 -0.00232085 7.14819 3.52954e-06 9.72538C0.00279704 12.826 1.96001 16.5083 4.49752 18.282L4.5025 23.7678C5.22327 25.1386 7.93859 26.109 9.52442 25.9902C12.8924 25.9877 13.4852 24.2205 13.4852 24.2205L13.4832 22.0032Z" fill="white"/>
<path fill-rule="evenodd" clip-rule="evenodd" d="M15.3203 10.4824C15.6821 10.4821 15.7421 10.4233 15.8572 10.3106C15.9239 10.2453 16.009 10.1619 16.1821 10.0613C16.6614 10.3344 17.227 10.4773 17.8041 10.4712L19.6364 9.90278C20.1525 9.54046 20.5067 9.03838 20.6395 8.48056C20.7723 7.92281 20.6757 7.34316 20.3659 6.83869C20.0562 6.33429 19.552 5.93554 18.9377 5.70937C18.7971 5.16957 18.4435 4.68686 17.9357 4.34146L16.146 3.81038L15.9446 3.81051C15.5461 3.31715 14.9484 2.96542 14.2649 2.82225L11.1681 2.64111C10.5305 2.68661 9.92945 2.91315 9.46165 3.28427C9.24047 3.24009 9.01404 3.21727 8.78679 3.21625C8.23657 3.2176 7.69854 3.35433 7.23762 3.60993C6.77677 3.86554 6.41276 4.22909 6.18958 4.6567L4.73289 5.5355C4.37066 5.95356 4.17586 6.45945 4.17734 6.97871C4.17394 7.19578 4.2081 7.41214 4.27862 7.62081C3.89665 8.043 3.69151 8.56148 3.69587 9.09411C3.6955 9.7118 3.97361 10.306 4.47297 10.7547C4.51363 11.1969 4.69578 11.6212 4.99968 11.9818C5.30359 12.3423 5.71772 12.6252 6.1972 12.8C6.74971 13.094 7.21773 13.4895 7.56681 13.9576C7.91588 14.4256 8.06026 14.9543 8.13729 15.5046L11.1801 15.5024L11.1777 12.9335C11.1766 12.4774 11.3258 12.0301 11.6085 11.6424C11.6514 11.5837 11.6915 11.5266 11.7302 11.4713C11.9467 11.1626 12.1226 10.9117 12.5306 10.7404C12.9814 10.5934 13.3874 10.3618 13.7184 10.0631C14.1906 10.3367 14.7488 10.4828 15.3203 10.4824ZM5.9148 10.395L11.828 9.58599L7.98973 5.87263L5.9148 10.395ZM12.1944 7.375L13.9451 4.53309L17.2593 6.0341L15.5086 8.87601L12.1944 7.375Z" fill="white"/>
<path d="M20.7016 12.6446C20.7022 13.1796 20.2061 13.6137 19.5937 13.6142C18.9813 13.6146 18.4844 13.1812 18.4839 12.6462C18.4834 12.1112 18.9795 11.677 19.5919 11.6766C20.2043 11.6762 20.7012 12.1095 20.7016 12.6446Z" fill="white"/>
<path fill-rule="evenodd" clip-rule="evenodd" d="M11.0964 18.1414L8.13937 18.1436L8.13818 16.8519L11.0952 16.8497L11.0964 18.1414Z" fill="white"/>
<path fill-rule="evenodd" clip-rule="evenodd" d="M11.0988 20.7253L8.14181 20.7274L8.14062 19.4357L11.0976 19.4336L11.0988 20.7253Z" fill="white"/>
<path fill-rule="evenodd" clip-rule="evenodd" d="M11.1008 23.3085L8.14376 23.3107L8.14258 22.019L11.0996 22.0168L11.1008 23.3085Z" fill="white"/>
</svg>
