<svg width="20" height="19" viewBox="0 0 20 19" fill="none" xmlns="http://www.w3.org/2000/svg">
<path d="M6.27991 0.000154662C6.9099 0.019314 7.51989 0.129312 8.11088 0.330309H8.16988C8.20988 0.349308 8.23988 0.370308 8.25988 0.389308C8.48087 0.460307 8.68987 0.540305 8.88987 0.650303L9.26986 0.820301C9.41986 0.900299 9.59985 1.0493 9.69985 1.1103C9.79985 1.16929 9.90985 1.23029 9.99985 1.29929C11.1108 0.450307 12.4598 -0.0096855 13.8498 0.000154662C14.4808 0.000154662 15.1108 0.0893128 15.7098 0.290309C19.4007 1.49029 20.7307 5.54022 19.6197 9.08016C18.9897 10.8891 17.9597 12.5401 16.6107 13.8891C14.6798 15.759 12.5608 17.419 10.2798 18.849L10.0298 19L9.76985 18.839C7.48089 17.419 5.34993 15.759 3.40096 13.8791C2.06098 12.5301 1.03 10.8891 0.39001 9.08016C-0.739971 5.54022 0.590007 1.49029 4.32094 0.26931C4.61094 0.169311 4.90993 0.0993127 5.20993 0.0603133H5.32993C5.61092 0.019314 5.88992 0.000154662 6.16991 0.000154662H6.27991ZM15.1898 3.16026C14.7798 3.01926 14.3298 3.24026 14.1798 3.66025C14.0398 4.08025 14.2598 4.54024 14.6798 4.68924C15.3208 4.92923 15.7498 5.56022 15.7498 6.25921V6.29021C15.7308 6.5192 15.7997 6.7402 15.9397 6.9102C16.0797 7.08019 16.2897 7.17919 16.5097 7.20019C16.9197 7.18919 17.2697 6.8602 17.2997 6.43921V6.32021C17.3297 4.91923 16.4807 3.65025 15.1898 3.16026Z" fill="white"/>
</svg>
