<svg width="192" height="195" viewBox="0 0 192 195" fill="none" xmlns="http://www.w3.org/2000/svg">
<path d="M183.178 122.29C170.291 169.771 122.075 198.271 75.4835 185.946C28.8922 173.621 1.5693 125.138 14.4561 77.6574C27.3429 30.1763 75.5595 1.67668 122.151 14.0016C168.742 26.3265 196.065 74.8089 183.178 122.29Z" fill="#607898"/>
<path fill-rule="evenodd" clip-rule="evenodd" d="M188.621 123.73C174.973 174.016 123.784 204.482 74.0256 191.319C24.2668 178.156 -4.63435 126.504 9.0139 76.2177C22.6622 25.9312 73.8508 -4.53439 123.61 8.62844C173.368 21.7913 202.27 73.4432 188.621 123.73ZM75.484 185.946C122.075 198.271 170.292 169.771 183.179 122.29C196.065 74.8089 168.743 26.3266 122.151 14.0017C75.5599 1.67676 27.3434 30.1764 14.4566 77.6575C1.56974 125.138 28.8926 173.621 75.484 185.946Z" fill="#044473"/>
<path d="M177.544 116.727C164.657 164.208 116.44 192.708 69.8489 180.383C23.2576 168.058 -4.06534 119.576 8.82148 72.0948C21.7083 24.6137 69.9249 -3.88594 116.516 8.43899C163.108 20.7639 190.43 69.2462 177.544 116.727Z" fill="#88A1B5"/>
<path fill-rule="evenodd" clip-rule="evenodd" d="M182.986 118.167C169.338 168.454 118.149 198.919 68.3905 185.756C18.6317 172.593 -10.2695 120.941 3.37877 70.655C17.027 20.3684 68.2157 -10.0971 117.974 3.0657C167.733 16.2285 196.634 67.8805 182.986 118.167ZM69.8488 180.383C116.44 192.708 164.657 164.208 177.544 116.727C190.43 69.2462 163.107 20.7639 116.516 8.43895C69.9248 -3.88598 21.7082 24.6137 8.82142 72.0947C-4.0654 119.576 23.2575 168.058 69.8488 180.383Z" fill="#044473"/>
<path d="M161.215 112.408C150.745 150.986 111.797 174.203 74.2236 164.263C36.65 154.324 14.6786 114.992 25.1491 76.414C35.6197 37.8357 74.5672 14.6193 112.141 24.5588C149.714 34.4982 171.686 73.8297 161.215 112.408Z" fill="#D4E1EB"/>
<path fill-rule="evenodd" clip-rule="evenodd" d="M166.658 113.848C155.437 155.193 113.544 180.424 72.7657 169.637C31.987 158.849 8.48537 116.32 19.7069 74.9742C30.9284 33.6289 72.8208 8.39814 113.6 19.1855C154.378 29.9728 177.88 72.5024 166.658 113.848ZM74.2241 164.263C111.798 174.203 150.745 150.986 161.216 112.408C171.686 73.8296 149.715 34.4982 112.141 24.5587C74.5676 14.6192 35.6201 37.8357 25.1496 76.414C14.679 114.992 36.6504 154.324 74.2241 164.263Z" fill="#607898"/>
<path fill-rule="evenodd" clip-rule="evenodd" d="M145.483 44.8839C137.743 38.0736 128.38 32.9268 117.776 30.1214C80.2019 20.182 41.2544 43.3984 30.7838 81.9767C24.0272 106.871 30.7797 132.079 46.5162 149.501C26.8319 132.182 17.6339 104.104 25.1492 76.4139C35.6197 37.8356 74.5672 14.6192 112.141 24.5586C125.468 28.0842 136.833 35.3077 145.483 44.8839Z" fill="#EBF5FC"/>
<path fill-rule="evenodd" clip-rule="evenodd" d="M15.8151 67.8117C14.3576 67.274 13.6176 65.6716 14.1622 64.2327C23.8868 38.5407 45.6644 18.6572 72.7114 11.2875C74.2113 10.8788 75.7628 11.7479 76.1767 13.2286C76.5907 14.7094 75.7104 16.2411 74.2105 16.6498C48.9181 23.5415 28.5374 42.1458 19.4404 66.1799C18.8957 67.6188 17.2727 68.3494 15.8151 67.8117Z" fill="#ACC7DC"/>
<path fill-rule="evenodd" clip-rule="evenodd" d="M163.379 136.562C164.694 137.382 165.087 139.1 164.256 140.399C157.666 150.699 148.928 159.524 138.662 166.262C137.366 167.113 135.618 166.765 134.756 165.486C133.895 164.207 134.247 162.48 135.542 161.63C145.148 155.324 153.326 147.065 159.492 137.428C160.323 136.129 162.063 135.742 163.379 136.562Z" fill="#ACC7DC"/>
<path fill-rule="evenodd" clip-rule="evenodd" d="M46.851 29.9715C46.8505 29.9719 46.8516 29.9712 46.851 29.9715L45.2883 27.6573C46.851 29.9715 46.8507 29.9718 46.851 29.9715L46.8409 29.9783L46.7838 30.0167C46.7304 30.0527 46.6472 30.1095 46.5367 30.1863C46.3157 30.3401 45.9862 30.5738 45.57 30.882C44.7366 31.499 43.5603 32.4112 42.2132 33.5749C39.5032 35.9159 36.1771 39.2105 33.5458 43.1071C32.6827 44.3853 30.9335 44.7306 29.6389 43.8785C28.3442 43.0265 27.9944 41.2996 28.8575 40.0214C31.8609 35.5738 35.5781 31.9149 38.5027 29.3885C39.9729 28.1185 41.2617 27.1185 42.1892 26.4317C42.6534 26.088 43.0282 25.8219 43.2914 25.6389C43.4231 25.5473 43.5269 25.4764 43.6002 25.4269L43.6868 25.3687L43.7122 25.3518L43.7204 25.3464L43.7233 25.3444C43.7238 25.3441 43.7255 25.343 45.2883 27.6573L43.7233 25.3444C45.018 24.4923 46.7693 24.8363 47.6324 26.1144C48.4951 27.392 48.1443 29.1191 46.851 29.9715Z" fill="#CEEAFF"/>
<path fill-rule="evenodd" clip-rule="evenodd" d="M58.1203 43.8786C58.1198 43.879 58.1209 43.8783 58.1203 43.8786L56.5576 41.5644C58.1203 43.8786 58.1199 43.8789 58.1203 43.8786L58.1102 43.8854L58.0531 43.9238C57.9997 43.9598 57.9165 44.0166 57.806 44.0935C57.585 44.2472 57.2555 44.4809 56.8393 44.7891C56.0059 45.4061 54.8296 46.3183 53.4825 47.482C50.7725 49.823 47.4464 53.1176 44.8151 57.0142C43.952 58.2924 42.2028 58.6377 40.9082 57.7856C39.6135 56.9336 39.2637 55.2067 40.1268 53.9285C43.1301 49.4809 46.8473 45.8221 49.772 43.2956C51.2422 42.0256 52.531 41.0256 53.4585 40.3388C53.9227 39.9951 54.2975 39.7291 54.5607 39.546C54.6924 39.4544 54.7962 39.3835 54.8695 39.334L54.9561 39.2758L54.9815 39.2589L54.9897 39.2535L54.9926 39.2515C54.9931 39.2512 54.9948 39.2501 56.5576 41.5644L54.9926 39.2515C56.2873 38.3994 58.0386 38.7434 58.9017 40.0215C59.7644 41.2991 59.4136 43.0262 58.1203 43.8786Z" fill="white"/>
</svg>
