<svg width="90" height="90" viewBox="0 0 90 90" fill="none" xmlns="http://www.w3.org/2000/svg">
<path d="M73.875 15.6822L73.8747 15.6822C68.6829 15.973 64.0915 12.4381 62.7885 7.3488L62.7882 7.34775C61.4821 2.23491 55.6701 0.388319 51.8757 3.59679L51.8755 3.59697C47.8753 6.97841 42.1244 6.97832 38.124 3.59704L38.1235 3.59666C34.3311 0.38923 28.5184 2.23457 27.2099 7.34849C25.9077 12.438 21.3162 15.973 16.1253 15.6822L16.1251 15.6822C11.2761 15.4099 7.5157 20.5032 9.37122 25.5103L9.37148 25.511C11.1884 30.4197 9.47166 36.0169 5.16273 38.9194L5.1625 38.9196C0.945775 41.7592 0.945921 48.2398 5.16242 51.0789L5.16285 51.0792C9.47151 53.9821 11.1886 59.5811 9.37134 64.4876C7.51564 69.4985 11.2766 74.5906 16.1243 74.3183C21.3166 74.0247 25.9082 77.5609 27.2099 82.652L73.875 15.6822ZM73.875 15.6822C78.7231 15.4099 82.4838 20.5027 80.6288 25.5103C78.81 30.419 80.5259 36.017 84.84 38.92C89.0537 41.7599 89.0533 48.2403 84.8391 51.0792C80.5256 53.982 78.81 59.582 80.629 64.4882C82.4841 69.4984 78.7225 74.5907 73.8751 74.3182C68.6822 74.0249 64.0916 77.5613 62.7884 82.6517L62.7882 82.6526C61.482 87.7651 55.6701 89.6121 51.876 86.4024L51.8749 86.4015C47.8747 83.0226 42.1244 83.0225 38.1244 86.4015L38.1232 86.4026M73.875 15.6822L38.1232 86.4026M38.1232 86.4026C34.331 89.6112 28.5183 87.7657 27.21 82.6523L38.1232 86.4026Z" stroke="#FF5C00" stroke-width="4"/>
</svg>
