<svg width="26" height="28" viewBox="0 0 26 28" fill="none" xmlns="http://www.w3.org/2000/svg">
<path d="M4.3077 20.9998H10.2308V22.4581C10.2308 24.2301 8.90486 25.6665 7.26924 25.6665C5.63363 25.6665 4.3077 24.2301 4.3077 22.4581V20.9998ZM8.67838 16.3331L8.72592 16.1787C9.55204 13.7224 9.69232 13.2664 9.69232 12.8331C9.69232 11.9587 9.47421 10.9168 9.12407 10.181C8.86351 9.63353 8.68001 9.47386 8.6154 9.47386C7.23786 9.47386 5.92309 11.065 5.92309 12.8331C5.92309 13.9517 6.00404 14.9019 6.16727 16.0513C6.17379 16.0972 6.18918 16.2017 6.2086 16.3331H8.67838ZM8.6154 7.14052C10.7692 7.14052 11.8462 10.4998 11.8462 12.8331C11.8462 13.9998 11.3077 15.1665 10.7692 16.9165L10.2308 18.6665H4.3077C4.3077 17.4998 3.76923 15.7498 3.76923 12.8331C3.76923 9.91648 5.92075 7.14052 8.6154 7.14052ZM21.5967 16.4478L21.3629 17.8841C21.0789 19.6291 19.5427 20.7942 17.932 20.4865C16.3212 20.1788 15.2457 18.5148 15.5298 16.7698L15.7635 15.3337L21.5967 16.4478ZM20.4664 11.4933C20.6441 10.9103 20.7905 10.4502 20.7923 10.4436C21.0096 9.67577 21.181 8.92348 21.3148 8.10138C21.5983 6.36009 20.5585 4.54579 19.2019 4.28665C19.1383 4.27449 18.9319 4.39721 18.5875 4.8874C18.1248 5.54612 17.743 6.53118 17.6029 7.39231C17.5401 7.77755 17.55 7.86391 17.894 10.0325C17.9411 10.3302 17.9814 10.5992 18.0182 10.8688L18.0403 11.0299L20.4664 11.4933ZM19.5759 1.98876C22.2296 2.49567 23.9034 5.63419 23.4359 8.50655C22.9684 11.3789 22.1576 13.001 21.9707 14.1499L16.1375 13.0358L15.8878 11.211C15.6379 9.38631 15.2947 8.13607 15.4817 6.98713C15.8557 4.68924 17.4547 1.58357 19.5759 1.98876Z" fill="white"/>
</svg>
