<svg width="20" height="20" viewBox="0 0 20 20" fill="none" xmlns="http://www.w3.org/2000/svg">
<path d="M9.99999 0.588257C7.05881 0.588257 4.70587 2.9412 4.70587 5.88237V8.23532C3.70587 8.23532 2.94116 9.00002 2.94116 10V17.6471C2.94116 18.6471 3.70587 19.4118 4.70587 19.4118H15.2941C16.2941 19.4118 17.0588 18.6471 17.0588 17.6471V10C17.0588 9.00002 16.2941 8.23532 15.2941 8.23532V5.88237C15.2941 2.9412 12.9412 0.588257 9.99999 0.588257ZM15.8823 10V17.6471C15.8823 18 15.647 18.2353 15.2941 18.2353H4.70587C4.35293 18.2353 4.11763 18 4.11763 17.6471V10C4.11763 9.64708 4.35293 9.41179 4.70587 9.41179H5.2941H14.7059H15.2941C15.647 9.41179 15.8823 9.64708 15.8823 10ZM5.88234 8.23532V5.88237C5.88234 3.58826 7.70587 1.76473 9.99999 1.76473C12.2941 1.76473 14.1176 3.58826 14.1176 5.88237V8.23532H5.88234Z" fill="#FF5C00"/>
<path d="M9.99994 11.1765C8.99994 11.1765 8.23523 11.9412 8.23523 12.9412C8.23523 13.7059 8.70582 14.353 9.4117 14.5883V15.8824C9.4117 16.2353 9.64699 16.4706 9.99994 16.4706C10.3529 16.4706 10.5882 16.2353 10.5882 15.8824V14.5883C11.2941 14.353 11.7646 13.7059 11.7646 12.9412C11.7646 11.9412 10.9999 11.1765 9.99994 11.1765ZM9.99994 13.5295C9.64699 13.5295 9.4117 13.2942 9.4117 12.9412C9.4117 12.5883 9.64699 12.353 9.99994 12.353C10.3529 12.353 10.5882 12.5883 10.5882 12.9412C10.5882 13.2942 10.3529 13.5295 9.99994 13.5295Z" fill="#FF5C00"/>
</svg>
