<svg width="28" height="28" viewBox="0 0 28 28" fill="none" xmlns="http://www.w3.org/2000/svg">
<path d="M14 26.25C7.245 26.25 1.75 20.755 1.75 14C1.75 7.245 7.245 1.75 14 1.75C20.755 1.75 26.25 7.245 26.25 14C26.25 20.755 20.755 26.25 14 26.25ZM14 2.625C7.728 2.625 2.625 7.728 2.625 14C2.625 20.272 7.728 25.375 14 25.375C20.272 25.375 25.375 20.272 25.375 14C25.375 7.728 20.272 2.625 14 2.625Z" fill="white"/>
<path d="M14 21.875C9.38962 21.875 7.96862 18.6838 7.91087 18.5473C7.8155 18.3251 7.91875 18.0678 8.141 17.9725C8.36062 17.878 8.61875 17.9795 8.715 18.2008C8.764 18.3155 9.98725 21 14 21C18.0127 21 19.236 18.3155 19.2859 18.2008C19.383 17.9803 19.6411 17.8823 19.8607 17.9742C20.0821 18.0696 20.1845 18.326 20.0891 18.5473C20.0314 18.6838 18.6104 21.875 14 21.875Z" fill="white"/>
<path d="M7.00089 19.25C6.75939 19.25 6.56339 19.054 6.56339 18.8125C6.56339 18.571 6.75939 18.375 7.00089 18.375C7.82951 18.375 8.40089 17.675 8.40614 17.6671C8.55489 17.4764 8.82876 17.4431 9.02039 17.5928C9.21026 17.7415 9.24439 18.0163 9.09476 18.207C9.06239 18.249 8.26526 19.25 7.00089 19.25ZM21.0009 19.25C19.7374 19.25 18.9403 18.249 18.9061 18.2079C18.7574 18.0171 18.7906 17.7424 18.9805 17.5936C19.1704 17.4458 19.4443 17.4781 19.593 17.6671C19.6018 17.6776 20.1714 18.3759 21 18.3759C21.2415 18.3759 21.4375 18.5719 21.4375 18.8134C21.4375 19.0549 21.2433 19.25 21.0009 19.25ZM20.5625 9.62412C20.4715 9.62412 20.3805 9.59613 20.3026 9.53838C20.2921 9.53138 19.2124 8.75 17.5009 8.75C17.2594 8.75 17.0634 8.554 17.0634 8.3125C17.0634 8.071 17.2594 7.875 17.5009 7.875C19.5178 7.875 20.7734 8.79813 20.8259 8.8375C21.0184 8.98188 21.0578 9.25488 20.9143 9.44825C20.8285 9.56375 20.6964 9.62412 20.5625 9.62412ZM7.43751 9.625C7.30189 9.625 7.16889 9.56287 7.08314 9.44475C6.94051 9.24962 6.98426 8.97575 7.17939 8.834C7.23451 8.79462 8.52076 7.875 10.5 7.875C10.7415 7.875 10.9375 8.071 10.9375 8.3125C10.9375 8.554 10.7415 8.75 10.5 8.75C8.80251 8.75 7.70613 9.534 7.69476 9.541C7.61776 9.59788 7.52764 9.625 7.43751 9.625ZM20.5625 13.5625C20.321 13.5625 20.125 13.3665 20.125 13.125C20.125 12.2001 19.3401 11.4476 18.375 11.4476C17.4099 11.4476 16.625 12.2001 16.625 13.125C16.625 13.3665 16.429 13.5625 16.1875 13.5625C15.946 13.5625 15.75 13.3665 15.75 13.125C15.75 11.718 16.9278 10.5726 18.375 10.5726C19.8223 10.5726 21 11.718 21 13.125C21 13.3665 20.804 13.5625 20.5625 13.5625ZM11.8125 13.5625C11.571 13.5625 11.375 13.3665 11.375 13.125C11.375 12.2001 10.5901 11.4476 9.62501 11.4476C8.65988 11.4476 7.87501 12.2001 7.87501 13.125C7.87501 13.3665 7.67901 13.5625 7.43751 13.5625C7.19601 13.5625 7.00001 13.3665 7.00001 13.125C7.00001 11.718 8.17776 10.5726 9.62501 10.5726C11.0723 10.5726 12.25 11.718 12.25 13.125C12.25 13.3665 12.054 13.5625 11.8125 13.5625Z" fill="white"/>
</svg>
