<svg width="30" height="29" viewBox="0 0 30 29" fill="none" xmlns="http://www.w3.org/2000/svg">
<path d="M28.6364 6.44444H20.9086V1.61111C20.9086 1.18382 20.765 0.774025 20.5092 0.471883C20.2535 0.169742 19.9067 0 19.545 0H10.455C10.0933 0 9.7465 0.169742 9.49076 0.471883C9.23503 0.774025 9.09136 1.18382 9.09136 1.61111V12.8889H1.36364C1.00198 12.8889 0.655131 13.0586 0.3994 13.3608C0.143668 13.6629 0 14.0727 0 14.5V27.3889C0 27.8162 0.143668 28.226 0.3994 28.5281C0.655131 28.8303 1.00198 29 1.36364 29H28.6364C28.998 29 29.3449 28.8303 29.6006 28.5281C29.8563 28.226 30 27.8162 30 27.3889V8.05556C30 7.62826 29.8563 7.21847 29.6006 6.91633C29.3449 6.61419 28.998 6.44444 28.6364 6.44444ZM9.09136 25.7778H2.72727V16.1111H9.09136V25.7778ZM18.1814 25.7778H11.8186V3.22222H18.1814V25.7778ZM27.2727 25.7778H20.9086V9.66667H27.2727V25.7778Z" fill="#FF5C00" fill-opacity="0.55"/>
</svg>
