<svg width="30" height="30" viewBox="0 0 30 30" fill="none" xmlns="http://www.w3.org/2000/svg">
<path d="M15 2.5C18.125 2.5 20.9375 3.625 23.125 5.5C20.45 7.7875 18.75 11.2 18.75 15C18.75 18.8 20.45 22.2125 23.125 24.5C20.9375 26.375 18.125 27.5 15 27.5C11.875 27.5 9.0625 26.375 6.875 24.5C9.55 22.2125 11.25 18.8 11.25 15C11.25 11.2 9.55 7.7875 6.875 5.5C9.0625 3.625 11.875 2.5 15 2.5ZM27.5 15C27.5 17.9 26.5125 20.5625 24.85 22.6875C22.65 20.85 21.25 18.0875 21.25 15C21.25 11.9125 22.65 9.15 24.85 7.3125C26.5125 9.4375 27.5 12.1 27.5 15ZM2.5 15C2.5 12.1 3.4875 9.4375 5.15 7.3125C7.35 9.15 8.75 11.9125 8.75 15C8.75 18.0875 7.35 20.85 5.15 22.6875C3.4875 20.5625 2.5 17.9 2.5 15Z" fill="#959595"/>
</svg>
