<svg width="30" height="29" viewBox="0 0 30 29" fill="none" xmlns="http://www.w3.org/2000/svg">
<path d="M19.9086 6.44444V7.44444H20.9086H28.6364C28.6739 7.44444 28.7513 7.46073 28.8373 7.56238C28.9276 7.66906 29 7.84457 29 8.05556V27.3889C29 27.5999 28.9276 27.7754 28.8373 27.8821C28.7513 27.9837 28.6739 28 28.6364 28H1.36364C1.32613 28 1.24873 27.9837 1.1627 27.8821C1.0724 27.7754 1 27.5999 1 27.3889V14.5C1 14.289 1.0724 14.1135 1.1627 14.0068C1.24873 13.9052 1.32613 13.8889 1.36364 13.8889H9.09136H10.0914V12.8889V1.61111C10.0914 1.40013 10.1638 1.22462 10.2541 1.11793C10.3401 1.01628 10.4175 1 10.455 1H19.545C19.5825 1 19.6599 1.01628 19.7459 1.11793C19.8362 1.22462 19.9086 1.40013 19.9086 1.61111V6.44444ZM9.09136 26.7778H10.0914V25.7778V16.1111V15.1111H9.09136H2.72727H1.72727V16.1111V25.7778V26.7778H2.72727H9.09136ZM18.1814 26.7778H19.1814V25.7778V3.22222V2.22222H18.1814H11.8186H10.8186V3.22222V25.7778V26.7778H11.8186H18.1814ZM27.2727 26.7778H28.2727V25.7778V9.66667V8.66667H27.2727H20.9086H19.9086V9.66667V25.7778V26.7778H20.9086H27.2727Z" fill="#FF5C00" stroke="#FF5C00" stroke-width="2"/>
</svg>
