<svg width="24" height="24" viewBox="0 0 24 24" fill="none" xmlns="http://www.w3.org/2000/svg">
<path d="M19.2 10.5L16 8.7V5H17.5V7.8L19.9 9.2L19.2 10.5ZM22.2 12.7C22.7 13.4 23 14.2 23 15V24H21V21H3V24H1V9H3V18H11V11.6C10.4 10.5 10 9.3 10 8C10 4.1 13.1 1 17 1C20.9 1 24 4.1 24 8C24 9.8 23.3 11.4 22.2 12.7ZM12 8C12 10.8 14.2 13 17 13C19.8 13 22 10.8 22 8C22 5.2 19.8 3 17 3C14.2 3 12 5.2 12 8ZM7 17C8.7 17 10 15.7 10 14C10 12.3 8.7 11 7 11C5.3 11 4 12.3 4 14C4 15.7 5.3 17 7 17Z" fill="white"/>
</svg>
