<svg width="30" height="29" viewBox="0 0 30 29" fill="none" xmlns="http://www.w3.org/2000/svg">
<path d="M25.605 4.2485L23.4825 6.30025C25.6575 8.3955 27 11.2955 27 14.5C27 20.909 21.63 26.1 15 26.1C8.37 26.1 3 20.909 3 14.5C3 8.584 7.5825 3.712 13.5 3.0015V5.9305C9.2475 6.61925 6 10.1935 6 14.5C6 19.3067 10.0275 23.2 15 23.2C19.9725 23.2 24 19.3067 24 14.5C24 12.1003 22.995 9.92525 21.3675 8.34475L19.245 10.3965C20.369 11.4858 21.0001 12.9615 21 14.5C21 17.7045 18.315 20.3 15 20.3C11.685 20.3 9 17.7045 9 14.5C9 11.803 10.92 9.54825 13.5 8.903V11.9987C12.6075 12.499 12 13.427 12 14.5C12 16.1023 13.3425 17.4 15 17.4C16.6575 17.4 18 16.1023 18 14.5C18 13.427 17.3925 12.5062 16.5 11.9987V0H15C6.7125 0 0 6.48875 0 14.5C0 22.504 6.7125 29 15 29C23.28 29 30 22.504 30 14.5C30 10.498 28.32 6.873 25.605 4.2485Z" fill="#FF5C00" fill-opacity="0.55"/>
</svg>
