<svg width="26" height="28" viewBox="0 0 26 28" fill="none" xmlns="http://www.w3.org/2000/svg">
<path d="M17.4462 11.6667C17.4462 11.6667 17.2308 12.8333 14 17.5C10.8769 21.9334 15.4 25.2 15.9385 25.6667H16.0462C16.6923 25.0834 24.877 19.4834 17.4462 11.6667Z" stroke="white" stroke-width="1.5" stroke-miterlimit="10" stroke-linecap="round" stroke-linejoin="round"/>
<path d="M14.8616 9.10006C14.8616 6.41672 13.8923 3.96672 12.9231 2.56672C12.6 2.21672 12.0616 2.33338 11.9539 2.80005C11.5231 4.55005 10.2308 8.28339 7.10771 12.7167C3.12308 18.3167 6.78463 24.3834 10.5539 25.5501C12.6 26.1334 10.0154 24.3834 9.69233 20.7668C9.36925 16.2167 14.8616 12.8334 14.8616 9.10006Z" stroke="white" stroke-width="1.5" stroke-miterlimit="10" stroke-linecap="round" stroke-linejoin="round"/>
</svg>
